<svg width="800" height="1000" viewBox="0 0 800 1000" fill="none" xmlns="http://www.w3.org/2000/svg">
  <rect width="800" height="1000" rx="48" fill="#EEE7DD"/>
  <rect x="74" y="72" width="652" height="856" rx="34" fill="#FAF8F3"/>
  <rect x="122" y="122" width="206" height="18" rx="9" fill="#7E6B58"/>
  <rect x="122" y="158" width="148" height="62" rx="12" fill="#241A14"/>
  <rect x="448" y="152" width="190" height="566" rx="28" fill="#D6C4AE"/>
  <rect x="396" y="214" width="172" height="438" rx="18" fill="#B59373"/>
  <rect x="178" y="336" width="182" height="334" rx="28" fill="#F0E5D8"/>
  <rect x="214" y="372" width="110" height="144" rx="16" fill="#E2C8AA"/>
  <rect x="206" y="704" width="282" height="14" rx="7" fill="#8F7E6D"/>
  <rect x="206" y="734" width="218" height="14" rx="7" fill="#8F7E6D"/>
  <rect x="120" y="800" width="560" height="76" rx="20" fill="#F3EDE5"/>
  <rect x="150" y="826" width="128" height="16" rx="8" fill="#2B211B"/>
  <rect x="540" y="818" width="110" height="30" rx="15" fill="#2B211B"/>
</svg>
